<svg id="svg" version="1.1" xmlns="http://www.w3.org/2000/svg" xmlns:xlink="http://www.w3.org/1999/xlink" width="400" height="400" viewBox="0, 0, 400,400"><g id="svgg"><path id="path0" d="M167.200 0.578 C 167.200 0.984,166.634 1.192,165.300 1.278 C 163.679 1.382,163.381 1.532,163.272 2.300 C 163.179 2.957,162.876 3.200,162.154 3.200 C 161.609 3.200,160.714 3.650,160.164 4.200 C 159.614 4.750,158.722 5.200,158.182 5.200 C 157.401 5.200,157.200 5.405,157.200 6.200 C 157.200 7.133,157.067 7.200,155.200 7.200 C 153.345 7.200,153.200 7.271,153.200 8.178 C 153.200 9.061,153.015 9.168,151.300 9.278 C 149.679 9.382,149.381 9.532,149.272 10.300 C 149.180 10.951,148.876 11.200,148.172 11.200 C 147.402 11.200,147.200 11.408,147.200 12.200 C 147.200 13.133,147.067 13.200,145.200 13.200 C 143.333 13.200,143.200 13.267,143.200 14.200 C 143.200 15.133,143.067 15.200,141.200 15.200 C 139.333 15.200,139.200 15.267,139.200 16.200 C 139.200 17.072,139.025 17.200,137.829 17.200 C 136.527 17.200,135.200 18.022,135.200 18.829 C 135.200 19.033,134.750 19.200,134.200 19.200 C 133.400 19.200,133.200 19.400,133.200 20.200 C 133.200 21.133,133.067 21.200,131.200 21.200 C 129.333 21.200,129.200 21.267,129.200 22.200 C 129.200 23.133,129.067 23.200,127.200 23.200 C 125.333 23.200,125.200 23.267,125.200 24.200 C 125.200 25.000,125.000 25.200,124.200 25.200 C 123.400 25.200,123.200 25.400,123.200 26.200 C 123.200 27.133,123.067 27.200,121.200 27.200 C 119.333 27.200,119.200 27.267,119.200 28.200 C 119.200 29.133,119.067 29.200,117.200 29.200 C 115.333 29.200,115.200 29.267,115.200 30.200 C 115.200 31.048,115.015 31.200,113.981 31.200 C 113.194 31.200,112.433 31.555,111.835 32.200 C 111.325 32.750,110.524 33.200,110.054 33.200 C 109.410 33.200,109.200 33.446,109.200 34.200 C 109.200 35.133,109.067 35.200,107.200 35.200 C 105.333 35.200,105.200 35.267,105.200 36.200 C 105.200 37.133,105.067 37.200,103.200 37.200 C 101.333 37.200,101.200 37.267,101.200 38.200 C 101.200 39.000,101.000 39.200,100.200 39.200 C 99.400 39.200,99.200 39.400,99.200 40.200 C 99.200 41.133,99.067 41.200,97.200 41.200 C 95.333 41.200,95.200 41.267,95.200 42.200 C 95.200 43.133,95.067 43.200,93.200 43.200 C 91.345 43.200,91.200 43.271,91.200 44.178 C 91.200 45.061,91.015 45.168,89.300 45.278 C 87.679 45.382,87.381 45.532,87.272 46.300 C 87.172 47.003,86.884 47.200,85.953 47.200 C 85.196 47.200,84.424 47.565,83.835 48.200 C 83.325 48.750,82.524 49.200,82.054 49.200 C 81.410 49.200,81.200 49.446,81.200 50.200 C 81.200 51.133,81.067 51.200,79.200 51.200 C 77.345 51.200,77.200 51.271,77.200 52.178 C 77.200 53.061,77.015 53.168,75.300 53.278 C 73.679 53.382,73.381 53.532,73.272 54.300 C 73.180 54.951,72.876 55.200,72.172 55.200 L 71.200 55.200 71.200 177.442 L 71.200 299.685 70.200 300.873 C 68.020 303.464,69.187 304.800,73.629 304.800 C 76.725 304.800,76.800 304.777,76.800 303.823 C 76.800 302.960,76.998 302.832,78.500 302.723 C 79.813 302.628,80.290 302.395,80.595 301.700 C 80.837 301.148,81.340 300.800,81.895 300.800 C 82.594 300.800,82.800 300.572,82.800 299.800 C 82.800 298.867,82.933 298.800,84.800 298.800 C 86.667 298.800,86.800 298.733,86.800 297.800 C 86.800 296.867,86.933 296.800,88.800 296.800 C 90.654 296.800,90.800 296.729,90.800 295.823 C 90.800 294.960,90.998 294.832,92.500 294.723 C 93.813 294.628,94.290 294.395,94.595 293.700 C 94.837 293.148,95.340 292.800,95.895 292.800 C 96.594 292.800,96.800 292.572,96.800 291.800 C 96.800 290.867,96.933 290.800,98.800 290.800 C 100.667 290.800,100.800 290.733,100.800 289.800 C 100.800 288.867,100.933 288.800,102.800 288.800 C 104.667 288.800,104.800 288.733,104.800 287.800 C 104.800 287.000,105.000 286.800,105.800 286.800 C 106.600 286.800,106.800 286.600,106.800 285.800 C 106.800 284.867,106.933 284.800,108.800 284.800 C 110.667 284.800,110.800 284.733,110.800 283.800 C 110.800 282.867,110.933 282.800,112.800 282.800 C 114.667 282.800,114.800 282.733,114.800 281.800 C 114.800 280.928,114.975 280.800,116.171 280.800 C 117.473 280.800,118.800 279.978,118.800 279.171 C 118.800 278.967,119.250 278.800,119.800 278.800 C 120.600 278.800,120.800 278.600,120.800 277.800 C 120.800 276.867,120.933 276.800,122.800 276.800 C 124.667 276.800,124.800 276.733,124.800 275.800 C 124.800 274.867,124.933 274.800,126.800 274.800 C 128.667 274.800,128.800 274.733,128.800 273.800 C 128.800 273.000,129.000 272.800,129.800 272.800 C 130.600 272.800,130.800 272.600,130.800 271.800 C 130.800 270.867,130.933 270.800,132.800 270.800 C 134.667 270.800,134.800 270.733,134.800 269.800 C 134.800 268.867,134.933 268.800,136.800 268.800 C 138.655 268.800,138.800 268.729,138.800 267.822 C 138.800 266.939,138.985 266.832,140.700 266.722 C 142.321 266.618,142.619 266.468,142.728 265.700 C 142.820 265.049,143.124 264.800,143.828 264.800 C 144.598 264.800,144.800 264.592,144.800 263.800 C 144.800 262.867,144.933 262.800,146.800 262.800 C 148.667 262.800,148.800 262.733,148.800 261.800 C 148.800 260.867,148.933 260.800,150.800 260.800 C 152.654 260.800,152.800 260.729,152.800 259.823 C 152.800 258.960,152.998 258.832,154.500 258.723 C 155.813 258.628,156.290 258.395,156.595 257.700 C 156.837 257.148,157.340 256.800,157.895 256.800 C 158.594 256.800,158.800 256.572,158.800 255.800 C 158.800 254.867,158.933 254.800,160.800 254.800 C 162.667 254.800,162.800 254.733,162.800 253.800 C 162.800 252.867,162.933 252.800,164.800 252.800 C 166.654 252.800,166.800 252.729,166.800 251.823 C 166.800 250.960,166.998 250.832,168.500 250.723 C 169.813 250.628,170.290 250.395,170.595 249.700 C 170.837 249.148,171.340 248.800,171.895 248.800 C 172.594 248.800,172.800 248.572,172.800 247.800 C 172.800 247.000,173.000 246.800,173.800 246.800 L 174.800 246.800 174.800 123.400 L 174.800 0.000 171.000 0.000 C 167.953 0.000,167.200 0.115,167.200 0.578 " stroke="none" fill="#8cc43c" fill-rule="evenodd"></path><path id="path1" d="M183.200 113.000 L 183.200 172.800 184.200 172.800 C 185.000 172.800,185.200 173.000,185.200 173.800 C 185.200 174.733,185.333 174.800,187.200 174.800 C 189.067 174.800,189.200 174.867,189.200 175.800 C 189.200 176.592,189.402 176.800,190.172 176.800 C 190.876 176.800,191.180 177.049,191.272 177.700 C 191.381 178.466,191.679 178.618,193.275 178.721 C 194.856 178.823,195.169 178.979,195.275 179.721 C 195.381 180.464,195.693 180.619,197.300 180.722 C 199.015 180.832,199.200 180.939,199.200 181.822 C 199.200 182.729,199.345 182.800,201.200 182.800 C 203.067 182.800,203.200 182.867,203.200 183.800 C 203.200 184.600,203.400 184.800,204.200 184.800 C 205.000 184.800,205.200 185.000,205.200 185.800 C 205.200 186.733,205.333 186.800,207.200 186.800 C 209.067 186.800,209.200 186.867,209.200 187.800 C 209.200 188.733,209.333 188.800,211.200 188.800 C 213.067 188.800,213.200 188.867,213.200 189.800 C 213.200 190.600,213.400 190.800,214.200 190.800 C 214.750 190.800,215.200 190.967,215.200 191.171 C 215.200 191.978,216.527 192.800,217.829 192.800 C 219.025 192.800,219.200 192.928,219.200 193.800 C 219.200 194.733,219.333 194.800,221.200 194.800 C 223.067 194.800,223.200 194.867,223.200 195.800 C 223.200 196.733,223.333 196.800,225.200 196.800 C 227.067 196.800,227.200 196.867,227.200 197.800 C 227.200 198.600,227.400 198.800,228.200 198.800 C 228.750 198.800,229.222 198.980,229.250 199.200 C 229.278 199.420,229.322 199.825,229.350 200.100 C 229.403 200.627,229.565 200.670,231.800 200.750 C 233.013 200.793,233.200 200.933,233.200 201.800 C 233.200 202.733,233.333 202.800,235.200 202.800 C 237.067 202.800,237.200 202.867,237.200 203.800 C 237.200 204.600,237.400 204.800,238.200 204.800 C 238.750 204.800,239.200 204.991,239.200 205.224 C 239.200 205.457,239.360 205.549,239.555 205.428 C 239.750 205.307,240.155 205.522,240.455 205.904 C 240.948 206.534,240.933 206.548,240.300 206.051 C 239.915 205.749,239.600 205.685,239.600 205.908 C 239.600 206.441,240.580 206.800,242.033 206.800 C 243.011 206.800,243.200 206.962,243.200 207.800 C 243.200 208.733,243.333 208.800,245.200 208.800 C 247.067 208.800,247.200 208.867,247.200 209.800 C 247.200 210.733,247.333 210.800,249.200 210.800 C 251.067 210.800,251.200 210.867,251.200 211.800 C 251.200 212.672,251.375 212.800,252.571 212.800 C 253.557 212.800,254.163 213.081,254.729 213.800 C 255.161 214.350,255.894 214.800,256.358 214.800 C 256.989 214.800,257.200 215.050,257.200 215.800 C 257.200 216.733,257.333 216.800,259.200 216.800 C 261.067 216.800,261.200 216.867,261.200 217.800 C 261.200 218.733,261.333 218.800,263.200 218.800 C 265.067 218.800,265.200 218.867,265.200 219.800 C 265.200 220.600,265.400 220.800,266.200 220.800 C 266.750 220.800,267.200 220.991,267.200 221.224 C 267.200 221.457,267.360 221.549,267.555 221.428 C 267.750 221.307,268.155 221.522,268.455 221.904 C 268.948 222.534,268.933 222.548,268.300 222.051 C 267.915 221.749,267.600 221.685,267.600 221.908 C 267.600 222.437,268.578 222.800,270.005 222.800 C 270.882 222.800,271.174 223.007,271.272 223.700 C 271.381 224.468,271.679 224.618,273.300 224.722 C 275.015 224.832,275.200 224.939,275.200 225.822 C 275.200 226.729,275.345 226.800,277.200 226.800 C 279.067 226.800,279.200 226.867,279.200 227.800 C 279.200 228.600,279.400 228.800,280.200 228.800 C 281.115 228.800,281.434 229.318,281.247 230.500 C 281.221 230.665,281.335 230.779,281.500 230.753 C 283.633 230.416,285.200 230.859,285.200 231.800 C 285.200 232.733,285.333 232.800,287.200 232.800 C 289.067 232.800,289.200 232.867,289.200 233.800 C 289.200 234.554,289.410 234.800,290.054 234.800 C 290.524 234.800,291.325 235.250,291.835 235.800 C 292.433 236.445,293.194 236.800,293.981 236.800 C 295.015 236.800,295.200 236.952,295.200 237.800 C 295.200 238.733,295.333 238.800,297.200 238.800 C 299.067 238.800,299.200 238.867,299.200 239.800 C 299.200 240.733,299.333 240.800,301.200 240.800 C 303.067 240.800,303.200 240.867,303.200 241.800 C 303.200 242.600,303.400 242.800,304.200 242.800 C 304.750 242.800,305.223 242.980,305.250 243.200 C 305.278 243.420,305.322 243.825,305.350 244.100 C 305.403 244.627,305.565 244.670,307.800 244.750 C 309.013 244.793,309.200 244.933,309.200 245.800 C 309.200 246.733,309.333 246.800,311.200 246.800 C 313.067 246.800,313.200 246.867,313.200 247.800 C 313.200 248.672,313.375 248.800,314.571 248.800 C 315.557 248.800,316.163 249.081,316.729 249.800 C 317.161 250.350,317.882 250.800,318.330 250.800 C 318.870 250.800,319.187 251.103,319.272 251.700 C 319.381 252.466,319.679 252.618,321.275 252.721 C 322.856 252.823,323.169 252.979,323.275 253.721 C 323.381 254.464,323.693 254.619,325.300 254.722 C 327.015 254.832,327.200 254.939,327.200 255.822 C 327.200 256.729,327.345 256.800,329.200 256.800 C 331.067 256.800,331.200 256.867,331.200 257.800 C 331.200 258.600,331.400 258.800,332.200 258.800 C 333.000 258.800,333.200 259.000,333.200 259.800 C 333.200 260.733,333.333 260.800,335.200 260.800 C 337.067 260.800,337.200 260.867,337.200 261.800 C 337.200 262.733,337.333 262.800,339.200 262.800 C 341.052 262.800,341.200 262.872,341.200 263.773 C 341.200 264.538,341.436 264.774,342.300 264.873 C 343.091 264.964,343.400 265.225,343.400 265.800 C 343.400 266.609,343.562 266.671,345.900 266.754 C 347.008 266.793,347.200 266.948,347.200 267.800 C 347.200 268.733,347.333 268.800,349.200 268.800 C 351.067 268.800,351.200 268.867,351.200 269.800 C 351.200 270.733,351.333 270.800,353.200 270.800 C 355.067 270.800,355.200 270.867,355.200 271.800 C 355.200 272.600,355.400 272.800,356.200 272.800 C 357.000 272.800,357.200 273.000,357.200 273.800 C 357.200 274.733,357.333 274.800,359.200 274.800 C 361.067 274.800,361.200 274.867,361.200 275.800 C 361.200 276.733,361.333 276.800,363.200 276.800 C 365.067 276.800,365.200 276.867,365.200 277.800 C 365.200 278.595,365.401 278.800,366.182 278.800 C 366.722 278.800,367.614 279.250,368.164 279.800 C 368.714 280.350,369.622 280.800,370.182 280.800 C 371.001 280.800,371.200 280.995,371.200 281.800 C 371.200 282.733,371.333 282.800,373.200 282.800 C 375.067 282.800,375.200 282.867,375.200 283.800 C 375.200 284.733,375.333 284.800,377.200 284.800 C 379.067 284.800,379.200 284.867,379.200 285.800 C 379.200 286.592,379.402 286.800,380.172 286.800 C 380.876 286.800,381.180 287.049,381.272 287.700 C 381.381 288.468,381.679 288.618,383.300 288.722 C 385.015 288.832,385.200 288.939,385.200 289.822 C 385.200 290.729,385.345 290.800,387.200 290.800 C 389.067 290.800,389.200 290.867,389.200 291.800 C 389.200 292.672,389.375 292.800,390.571 292.800 C 391.557 292.800,392.163 293.081,392.729 293.800 C 393.426 294.686,393.815 294.800,396.158 294.800 L 398.800 294.800 398.800 235.000 L 398.800 175.200 397.828 175.200 C 397.124 175.200,396.820 174.951,396.728 174.300 C 396.619 173.532,396.321 173.382,394.700 173.278 C 392.985 173.168,392.800 173.061,392.800 172.178 C 392.800 171.271,392.655 171.200,390.800 171.200 C 388.933 171.200,388.800 171.133,388.800 170.200 C 388.800 169.267,388.667 169.200,386.800 169.200 C 384.933 169.200,384.800 169.133,384.800 168.200 C 384.800 167.400,384.600 167.200,383.800 167.200 C 383.000 167.200,382.800 167.000,382.800 166.200 C 382.800 165.267,382.667 165.200,380.800 165.200 C 378.933 165.200,378.800 165.133,378.800 164.200 C 378.800 163.267,378.667 163.200,376.800 163.200 C 374.933 163.200,374.800 163.133,374.800 162.200 C 374.800 161.408,374.598 161.200,373.828 161.200 C 373.124 161.200,372.820 160.951,372.728 160.300 C 372.619 159.532,372.321 159.382,370.700 159.278 C 368.985 159.168,368.800 159.061,368.800 158.178 C 368.800 157.271,368.655 157.200,366.800 157.200 C 364.933 157.200,364.800 157.133,364.800 156.200 C 364.800 155.267,364.667 155.200,362.800 155.200 C 360.933 155.200,360.800 155.133,360.800 154.200 C 360.800 153.400,360.600 153.200,359.800 153.200 C 359.250 153.200,358.800 153.033,358.800 152.829 C 358.800 152.022,357.473 151.200,356.171 151.200 C 354.975 151.200,354.800 151.072,354.800 150.200 C 354.800 149.267,354.667 149.200,352.800 149.200 C 350.933 149.200,350.800 149.133,350.800 148.200 C 350.800 147.267,350.667 147.200,348.800 147.200 C 346.933 147.200,346.800 147.133,346.800 146.200 C 346.800 145.408,346.598 145.200,345.828 145.200 C 345.124 145.200,344.820 144.951,344.728 144.300 C 344.619 143.532,344.321 143.382,342.700 143.278 C 340.985 143.168,340.800 143.061,340.800 142.178 C 340.800 141.271,340.655 141.200,338.800 141.200 C 336.933 141.200,336.800 141.133,336.800 140.200 C 336.800 139.267,336.667 139.200,334.800 139.200 C 332.933 139.200,332.800 139.133,332.800 138.200 C 332.800 137.400,332.600 137.200,331.800 137.200 C 331.000 137.200,330.800 137.000,330.800 136.200 C 330.800 135.267,330.667 135.200,328.800 135.200 C 326.933 135.200,326.800 135.133,326.800 134.200 C 326.800 133.267,326.667 133.200,324.800 133.200 C 322.933 133.200,322.800 133.133,322.800 132.200 C 322.800 131.408,322.598 131.200,321.828 131.200 C 321.124 131.200,320.820 130.951,320.728 130.300 C 320.619 129.532,320.321 129.382,318.700 129.278 C 316.985 129.168,316.800 129.061,316.800 128.178 C 316.800 127.271,316.655 127.200,314.800 127.200 C 312.933 127.200,312.800 127.133,312.800 126.200 C 312.800 125.267,312.667 125.200,310.800 125.200 C 308.933 125.200,308.800 125.133,308.800 124.200 C 308.800 123.400,308.600 123.200,307.800 123.200 C 306.885 123.200,306.566 122.682,306.753 121.500 C 306.779 121.335,306.665 121.221,306.500 121.247 C 304.367 121.584,302.800 121.141,302.800 120.200 C 302.800 119.267,302.667 119.200,300.800 119.200 C 298.933 119.200,298.800 119.133,298.800 118.200 C 298.800 117.400,298.600 117.200,297.800 117.200 C 297.250 117.200,296.800 117.033,296.800 116.829 C 296.800 116.022,295.473 115.200,294.171 115.200 C 292.975 115.200,292.800 115.072,292.800 114.200 C 292.800 113.267,292.667 113.200,290.800 113.200 C 288.933 113.200,288.800 113.133,288.800 112.200 C 288.800 111.267,288.667 111.200,286.800 111.200 C 284.948 111.200,284.800 111.128,284.800 110.227 C 284.800 109.462,284.564 109.226,283.700 109.127 C 282.909 109.036,282.600 108.775,282.600 108.200 C 282.600 107.391,282.438 107.329,280.100 107.246 C 278.992 107.207,278.800 107.052,278.800 106.200 C 278.800 105.267,278.667 105.200,276.800 105.200 C 274.933 105.200,274.800 105.133,274.800 104.200 C 274.800 103.267,274.667 103.200,272.800 103.200 C 270.933 103.200,270.800 103.133,270.800 102.200 C 270.800 101.408,270.598 101.200,269.828 101.200 C 269.124 101.200,268.820 100.951,268.728 100.300 C 268.619 99.532,268.321 99.382,266.700 99.278 C 264.985 99.168,264.800 99.061,264.800 98.178 C 264.800 97.271,264.655 97.200,262.800 97.200 C 260.933 97.200,260.800 97.133,260.800 96.200 C 260.800 95.267,260.667 95.200,258.800 95.200 C 256.933 95.200,256.800 95.133,256.800 94.200 C 256.800 93.400,256.600 93.200,255.800 93.200 C 255.000 93.200,254.800 93.000,254.800 92.200 C 254.800 91.267,254.667 91.200,252.800 91.200 C 250.933 91.200,250.800 91.133,250.800 90.200 C 250.800 89.267,250.667 89.200,248.800 89.200 C 246.933 89.200,246.800 89.133,246.800 88.200 C 246.800 87.428,246.594 87.200,245.895 87.200 C 245.340 87.200,244.837 86.852,244.595 86.300 C 244.290 85.605,243.813 85.372,242.500 85.277 C 240.998 85.168,240.800 85.040,240.800 84.177 C 240.800 83.271,240.654 83.200,238.800 83.200 C 236.933 83.200,236.800 83.133,236.800 82.200 C 236.800 81.267,236.667 81.200,234.800 81.200 C 232.933 81.200,232.800 81.133,232.800 80.200 C 232.800 79.400,232.600 79.200,231.800 79.200 C 230.885 79.200,230.566 78.682,230.753 77.500 C 230.779 77.335,230.665 77.221,230.500 77.247 C 228.547 77.556,226.845 77.128,226.728 76.300 C 226.619 75.532,226.321 75.382,224.700 75.278 C 222.985 75.168,222.800 75.061,222.800 74.178 C 222.800 73.401,222.594 73.200,221.800 73.200 C 221.250 73.200,220.800 73.009,220.800 72.776 C 220.800 72.543,220.640 72.451,220.445 72.572 C 220.250 72.693,219.845 72.478,219.545 72.096 C 219.052 71.466,219.067 71.452,219.700 71.949 C 220.085 72.251,220.400 72.315,220.400 72.092 C 220.400 71.559,219.420 71.200,217.967 71.200 C 216.989 71.200,216.800 71.038,216.800 70.200 C 216.800 69.267,216.667 69.200,214.800 69.200 C 212.933 69.200,212.800 69.133,212.800 68.200 C 212.800 67.267,212.667 67.200,210.800 67.200 C 208.933 67.200,208.800 67.133,208.800 66.200 C 208.800 65.358,208.612 65.200,207.613 65.200 C 206.784 65.200,206.487 65.038,206.631 64.664 C 206.842 64.113,205.952 63.124,205.342 63.233 C 203.727 63.523,202.800 63.146,202.800 62.200 C 202.800 61.267,202.667 61.200,200.800 61.200 C 198.933 61.200,198.800 61.133,198.800 60.200 C 198.800 59.267,198.667 59.200,196.800 59.200 C 194.933 59.200,194.800 59.133,194.800 58.200 C 194.800 57.400,194.600 57.200,193.800 57.200 C 192.885 57.200,192.566 56.682,192.753 55.500 C 192.779 55.335,192.665 55.221,192.500 55.247 C 190.367 55.584,188.800 55.141,188.800 54.200 C 188.800 53.229,188.720 53.200,186.000 53.200 L 183.200 53.200 183.200 113.000 " stroke="none" fill="#04bce4" fill-rule="evenodd"></path><path id="path2" d="M253.600 213.089 C 253.600 213.592,254.743 214.590,255.012 214.321 C 255.118 214.215,254.844 213.802,254.402 213.402 C 253.961 213.003,253.600 212.862,253.600 213.089 M239.467 217.467 C 239.320 217.613,239.200 218.063,239.200 218.467 C 239.200 218.982,238.903 219.200,238.200 219.200 C 237.400 219.200,237.200 219.400,237.200 220.200 C 237.200 221.133,237.067 221.200,235.200 221.200 C 233.333 221.200,233.200 221.267,233.200 222.200 C 233.200 223.133,233.067 223.200,231.200 223.200 C 229.333 223.200,229.200 223.267,229.200 224.200 C 229.200 225.000,229.000 225.200,228.200 225.200 C 227.406 225.200,227.200 225.401,227.200 226.178 C 227.200 227.061,227.015 227.168,225.300 227.278 C 223.679 227.382,223.381 227.532,223.272 228.300 C 223.159 229.094,222.913 229.200,221.172 229.200 C 219.348 229.200,219.200 229.273,219.200 230.177 C 219.200 231.040,219.002 231.168,217.500 231.277 C 216.187 231.372,215.710 231.605,215.405 232.300 C 215.163 232.852,214.660 233.200,214.105 233.200 C 213.406 233.200,213.200 233.428,213.200 234.200 C 213.200 235.133,213.067 235.200,211.200 235.200 C 209.333 235.200,209.200 235.267,209.200 236.200 C 209.200 237.133,209.067 237.200,207.200 237.200 C 205.333 237.200,205.200 237.267,205.200 238.200 C 205.200 239.000,205.000 239.200,204.200 239.200 C 203.400 239.200,203.200 239.400,203.200 240.200 C 203.200 241.133,203.067 241.200,201.200 241.200 C 199.333 241.200,199.200 241.267,199.200 242.200 C 199.200 243.133,199.067 243.200,197.200 243.200 C 195.333 243.200,195.200 243.267,195.200 244.200 C 195.200 245.133,195.067 245.200,193.200 245.200 C 191.333 245.200,191.200 245.267,191.200 246.200 C 191.200 247.005,191.001 247.200,190.182 247.200 C 189.622 247.200,188.714 247.650,188.164 248.200 C 187.614 248.750,186.722 249.200,186.182 249.200 C 185.401 249.200,185.200 249.405,185.200 250.200 C 185.200 251.133,185.067 251.200,183.200 251.200 C 181.345 251.200,181.200 251.271,181.200 252.178 C 181.200 253.061,181.015 253.168,179.300 253.278 C 177.679 253.382,177.381 253.532,177.272 254.300 C 177.180 254.951,176.876 255.200,176.172 255.200 C 175.402 255.200,175.200 255.408,175.200 256.200 C 175.200 257.133,175.067 257.200,173.200 257.200 C 171.333 257.200,171.200 257.267,171.200 258.200 C 171.200 259.133,171.067 259.200,169.200 259.200 C 167.345 259.200,167.200 259.271,167.200 260.178 C 167.200 261.061,167.015 261.168,165.300 261.278 C 163.679 261.382,163.381 261.532,163.272 262.300 C 163.180 262.951,162.876 263.200,162.172 263.200 C 161.402 263.200,161.200 263.408,161.200 264.200 C 161.200 265.133,161.067 265.200,159.200 265.200 C 157.333 265.200,157.200 265.267,157.200 266.200 C 157.200 267.133,157.067 267.200,155.200 267.200 C 153.333 267.200,153.200 267.267,153.200 268.200 C 153.200 269.000,153.000 269.200,152.200 269.200 C 151.400 269.200,151.200 269.400,151.200 270.200 C 151.200 271.133,151.067 271.200,149.200 271.200 C 147.333 271.200,147.200 271.267,147.200 272.200 C 147.200 273.133,147.067 273.200,145.200 273.200 C 143.346 273.200,143.200 273.271,143.200 274.177 C 143.200 275.040,143.002 275.168,141.500 275.277 C 140.187 275.372,139.710 275.605,139.405 276.300 C 139.163 276.852,138.660 277.200,138.105 277.200 C 137.406 277.200,137.200 277.428,137.200 278.200 C 137.200 279.133,137.067 279.200,135.200 279.200 C 133.333 279.200,133.200 279.267,133.200 280.200 C 133.200 281.133,133.067 281.200,131.200 281.200 C 129.333 281.200,129.200 281.267,129.200 282.200 C 129.200 283.000,129.000 283.200,128.200 283.200 C 127.400 283.200,127.200 283.400,127.200 284.200 C 127.200 285.133,127.067 285.200,125.200 285.200 C 123.333 285.200,123.200 285.267,123.200 286.200 C 123.200 287.133,123.067 287.200,121.200 287.200 C 119.333 287.200,119.200 287.267,119.200 288.200 C 119.200 289.133,119.067 289.200,117.200 289.200 C 115.333 289.200,115.200 289.267,115.200 290.200 C 115.200 291.005,115.001 291.200,114.182 291.200 C 113.622 291.200,112.714 291.650,112.164 292.200 C 111.614 292.750,110.722 293.200,110.182 293.200 C 109.401 293.200,109.200 293.405,109.200 294.200 C 109.200 295.133,109.067 295.200,107.200 295.200 C 105.333 295.200,105.200 295.267,105.200 296.200 C 105.200 297.133,105.067 297.200,103.200 297.200 C 101.333 297.200,101.200 297.267,101.200 298.200 C 101.200 299.000,101.000 299.200,100.200 299.200 C 99.400 299.200,99.200 299.400,99.200 300.200 C 99.200 301.133,99.067 301.200,97.200 301.200 C 95.333 301.200,95.200 301.267,95.200 302.200 C 95.200 303.133,95.067 303.200,93.200 303.200 C 91.345 303.200,91.200 303.271,91.200 304.178 C 91.200 305.061,91.015 305.168,89.300 305.278 C 87.679 305.382,87.381 305.532,87.272 306.300 C 87.180 306.951,86.876 307.200,86.172 307.200 C 85.402 307.200,85.200 307.408,85.200 308.200 C 85.200 309.133,85.067 309.200,83.200 309.200 C 81.333 309.200,81.200 309.267,81.200 310.200 C 81.200 311.133,81.067 311.200,79.200 311.200 C 77.333 311.200,77.200 311.267,77.200 312.200 C 77.200 313.000,77.000 313.200,76.200 313.200 C 75.400 313.200,75.200 313.400,75.200 314.200 C 75.200 315.133,75.067 315.200,73.200 315.200 C 71.333 315.200,71.200 315.267,71.200 316.200 C 71.200 317.133,71.067 317.200,69.200 317.200 C 67.345 317.200,67.200 317.271,67.200 318.178 C 67.200 319.061,67.015 319.168,65.300 319.278 C 63.679 319.382,63.381 319.532,63.272 320.300 C 63.180 320.951,62.876 321.200,62.172 321.200 C 61.402 321.200,61.200 321.408,61.200 322.200 C 61.200 323.133,61.067 323.200,59.200 323.200 C 57.333 323.200,57.200 323.267,57.200 324.200 C 57.200 325.133,57.067 325.200,55.200 325.200 C 53.333 325.200,53.200 325.267,53.200 326.200 C 53.200 327.000,53.000 327.200,52.200 327.200 C 51.400 327.200,51.200 327.400,51.200 328.200 C 51.200 329.133,51.067 329.200,49.200 329.200 C 47.333 329.200,47.200 329.267,47.200 330.200 C 47.200 331.133,47.067 331.200,45.200 331.200 C 43.333 331.200,43.200 331.267,43.200 332.200 C 43.200 333.133,43.067 333.200,41.200 333.200 C 39.346 333.200,39.200 333.271,39.200 334.177 C 39.200 335.040,39.002 335.168,37.500 335.277 C 36.187 335.372,35.710 335.605,35.405 336.300 C 35.163 336.852,34.660 337.200,34.105 337.200 C 33.406 337.200,33.200 337.428,33.200 338.200 C 33.200 339.000,33.000 339.200,32.200 339.200 C 31.229 339.200,31.200 339.280,31.200 342.000 C 31.200 344.720,31.229 344.800,32.200 344.800 C 33.000 344.800,33.200 345.000,33.200 345.800 C 33.200 346.592,33.402 346.800,34.172 346.800 C 34.876 346.800,35.180 347.049,35.272 347.700 C 35.381 348.468,35.679 348.618,37.300 348.722 C 39.015 348.832,39.200 348.939,39.200 349.822 C 39.200 350.729,39.345 350.800,41.200 350.800 C 43.067 350.800,43.200 350.867,43.200 351.800 C 43.200 352.733,43.333 352.800,45.200 352.800 C 47.067 352.800,47.200 352.867,47.200 353.800 C 47.200 354.600,47.400 354.800,48.200 354.800 C 49.000 354.800,49.200 355.000,49.200 355.800 C 49.200 356.733,49.333 356.800,51.200 356.800 C 53.166 356.800,53.475 357.057,53.247 358.500 C 53.221 358.665,53.335 358.779,53.500 358.753 C 55.633 358.416,57.200 358.859,57.200 359.800 C 57.200 360.554,57.410 360.800,58.054 360.800 C 58.524 360.800,59.325 361.250,59.835 361.800 C 60.433 362.445,61.194 362.800,61.981 362.800 C 63.015 362.800,63.200 362.952,63.200 363.800 C 63.200 364.733,63.333 364.800,65.200 364.800 C 67.067 364.800,67.200 364.867,67.200 365.800 C 67.200 366.733,67.333 366.800,69.200 366.800 C 71.067 366.800,71.200 366.867,71.200 367.800 C 71.200 368.733,71.333 368.800,73.200 368.800 C 75.067 368.800,75.200 368.867,75.200 369.800 C 75.200 370.600,75.400 370.800,76.200 370.800 C 77.000 370.800,77.200 371.000,77.200 371.800 C 77.200 372.733,77.333 372.800,79.200 372.800 C 81.067 372.800,81.200 372.867,81.200 373.800 C 81.200 374.733,81.333 374.800,83.200 374.800 C 85.067 374.800,85.200 374.867,85.200 375.800 C 85.200 376.592,85.402 376.800,86.172 376.800 C 86.876 376.800,87.180 377.049,87.272 377.700 C 87.381 378.468,87.679 378.618,89.300 378.722 C 91.015 378.832,91.200 378.939,91.200 379.822 C 91.200 380.727,91.347 380.800,93.172 380.800 C 94.913 380.800,95.159 380.906,95.272 381.700 C 95.381 382.468,95.679 382.618,97.300 382.722 C 99.015 382.832,99.200 382.939,99.200 383.822 C 99.200 384.599,99.406 384.800,100.200 384.800 C 101.000 384.800,101.200 385.000,101.200 385.800 C 101.200 386.733,101.333 386.800,103.200 386.800 C 105.067 386.800,105.200 386.867,105.200 387.800 C 105.200 388.733,105.333 388.800,107.200 388.800 C 109.067 388.800,109.200 388.867,109.200 389.800 C 109.200 390.554,109.410 390.800,110.054 390.800 C 110.524 390.800,111.325 391.250,111.835 391.800 C 112.433 392.445,113.194 392.800,113.981 392.800 C 115.015 392.800,115.200 392.952,115.200 393.800 C 115.200 394.733,115.333 394.800,117.200 394.800 C 119.067 394.800,119.200 394.867,119.200 395.800 C 119.200 396.733,119.333 396.800,121.200 396.800 C 123.067 396.800,123.200 396.867,123.200 397.800 C 123.200 398.600,123.400 398.800,124.200 398.800 C 124.822 398.800,125.200 399.027,125.200 399.400 C 125.200 399.906,126.111 400.000,131.000 400.000 C 135.889 400.000,136.800 399.906,136.800 399.400 C 136.800 398.947,137.289 398.800,138.800 398.800 C 140.667 398.800,140.800 398.733,140.800 397.800 C 140.800 397.050,141.011 396.800,141.642 396.800 C 142.106 396.800,142.830 396.361,143.252 395.825 C 143.720 395.230,144.523 394.801,145.310 394.725 C 146.296 394.629,146.630 394.388,146.728 393.700 C 146.841 392.906,147.087 392.800,148.828 392.800 C 150.653 392.800,150.800 392.727,150.800 391.822 C 150.800 390.939,150.985 390.832,152.700 390.722 C 154.321 390.618,154.619 390.468,154.728 389.700 C 154.820 389.049,155.124 388.800,155.828 388.800 C 156.598 388.800,156.800 388.592,156.800 387.800 C 156.800 386.867,156.933 386.800,158.800 386.800 C 160.667 386.800,160.800 386.733,160.800 385.800 C 160.800 384.867,160.933 384.800,162.800 384.800 C 164.655 384.800,164.800 384.729,164.800 383.822 C 164.800 382.939,164.985 382.832,166.700 382.722 C 168.321 382.618,168.619 382.468,168.728 381.700 C 168.820 381.049,169.124 380.800,169.828 380.800 C 170.598 380.800,170.800 380.592,170.800 379.800 C 170.800 378.867,170.933 378.800,172.800 378.800 C 174.667 378.800,174.800 378.733,174.800 377.800 C 174.800 376.867,174.933 376.800,176.800 376.800 C 178.667 376.800,178.800 376.733,178.800 375.800 C 178.800 375.000,179.000 374.800,179.800 374.800 C 180.600 374.800,180.800 374.600,180.800 373.800 C 180.800 372.867,180.933 372.800,182.800 372.800 C 184.667 372.800,184.800 372.733,184.800 371.800 C 184.800 370.867,184.933 370.800,186.800 370.800 C 188.655 370.800,188.800 370.729,188.800 369.822 C 188.800 368.939,188.985 368.832,190.700 368.722 C 192.321 368.618,192.619 368.468,192.728 367.700 C 192.820 367.049,193.124 366.800,193.828 366.800 C 194.598 366.800,194.800 366.592,194.800 365.800 C 194.800 364.867,194.933 364.800,196.800 364.800 C 198.667 364.800,198.800 364.733,198.800 363.800 C 198.800 362.867,198.933 362.800,200.800 362.800 C 202.667 362.800,202.800 362.733,202.800 361.800 C 202.800 361.000,203.000 360.800,203.800 360.800 C 204.600 360.800,204.800 360.600,204.800 359.800 C 204.800 358.867,204.933 358.800,206.800 358.800 C 208.667 358.800,208.800 358.733,208.800 357.800 C 208.800 356.867,208.933 356.800,210.800 356.800 C 212.667 356.800,212.800 356.733,212.800 355.800 C 212.800 354.867,212.933 354.800,214.800 354.800 C 216.667 354.800,216.800 354.733,216.800 353.800 C 216.800 352.952,216.985 352.800,218.019 352.800 C 218.806 352.800,219.567 352.445,220.165 351.800 C 220.675 351.250,221.476 350.800,221.946 350.800 C 222.590 350.800,222.800 350.554,222.800 349.800 C 222.800 348.867,222.933 348.800,224.800 348.800 C 226.655 348.800,226.800 348.729,226.800 347.822 C 226.800 346.939,226.985 346.832,228.700 346.722 C 230.321 346.618,230.619 346.468,230.728 345.700 C 230.820 345.049,231.124 344.800,231.828 344.800 C 232.598 344.800,232.800 344.592,232.800 343.800 C 232.800 342.867,232.933 342.800,234.800 342.800 C 236.667 342.800,236.800 342.733,236.800 341.800 C 236.800 340.867,236.933 340.800,238.800 340.800 C 240.655 340.800,240.800 340.729,240.800 339.822 C 240.800 338.939,240.985 338.832,242.700 338.722 C 244.321 338.618,244.619 338.468,244.728 337.700 C 244.820 337.049,245.124 336.800,245.828 336.800 C 246.598 336.800,246.800 336.592,246.800 335.800 C 246.800 334.867,246.933 334.800,248.800 334.800 C 250.667 334.800,250.800 334.733,250.800 333.800 C 250.800 332.867,250.933 332.800,252.800 332.800 C 254.667 332.800,254.800 332.733,254.800 331.800 C 254.800 331.000,255.000 330.800,255.800 330.800 C 256.600 330.800,256.800 330.600,256.800 329.800 C 256.800 328.867,256.933 328.800,258.800 328.800 C 260.667 328.800,260.800 328.733,260.800 327.800 C 260.800 326.867,260.933 326.800,262.800 326.800 C 264.655 326.800,264.800 326.729,264.800 325.822 C 264.800 324.939,264.985 324.832,266.700 324.722 C 268.321 324.618,268.619 324.468,268.728 323.700 C 268.820 323.049,269.124 322.800,269.828 322.800 C 270.598 322.800,270.800 322.592,270.800 321.800 C 270.800 320.867,270.933 320.800,272.800 320.800 C 274.667 320.800,274.800 320.733,274.800 319.800 C 274.800 318.867,274.933 318.800,276.800 318.800 C 278.667 318.800,278.800 318.733,278.800 317.800 C 278.800 317.000,279.000 316.800,279.800 316.800 C 280.600 316.800,280.800 316.600,280.800 315.800 C 280.800 314.867,280.933 314.800,282.800 314.800 C 284.667 314.800,284.800 314.733,284.800 313.800 C 284.800 312.867,284.933 312.800,286.800 312.800 C 288.667 312.800,288.800 312.733,288.800 311.800 C 288.800 310.867,288.933 310.800,290.800 310.800 C 292.667 310.800,292.800 310.733,292.800 309.800 C 292.800 308.952,292.985 308.800,294.019 308.800 C 294.806 308.800,295.567 308.445,296.165 307.800 C 296.675 307.250,297.476 306.800,297.946 306.800 C 298.590 306.800,298.800 306.554,298.800 305.800 C 298.800 304.867,298.933 304.800,300.800 304.800 C 302.667 304.800,302.800 304.733,302.800 303.800 C 302.800 302.867,302.933 302.800,304.800 302.800 C 306.667 302.800,306.800 302.733,306.800 301.800 C 306.800 301.000,307.000 300.800,307.800 300.800 C 308.600 300.800,308.800 300.600,308.800 299.800 C 308.800 298.867,308.933 298.800,310.800 298.800 C 312.667 298.800,312.800 298.733,312.800 297.800 C 312.800 296.859,314.367 296.416,316.500 296.753 C 316.665 296.779,316.779 296.665,316.753 296.500 C 316.538 295.140,316.867 294.840,318.700 294.722 C 320.321 294.618,320.619 294.468,320.728 293.700 C 320.820 293.049,321.124 292.800,321.828 292.800 C 322.598 292.800,322.800 292.592,322.800 291.800 C 322.800 290.867,322.933 290.800,324.800 290.800 C 326.667 290.800,326.800 290.733,326.800 289.800 C 326.800 288.867,326.933 288.800,328.800 288.800 C 330.667 288.800,330.800 288.733,330.800 287.800 C 330.800 287.000,331.000 286.800,331.800 286.800 C 332.600 286.800,332.800 286.600,332.800 285.800 C 332.800 284.867,332.933 284.800,334.800 284.800 C 336.667 284.800,336.800 284.733,336.800 283.800 C 336.800 282.867,336.933 282.800,338.800 282.800 C 340.667 282.800,340.800 282.733,340.800 281.800 C 340.800 280.860,342.131 280.469,344.440 280.733 C 344.572 280.748,344.716 279.509,344.761 277.980 C 344.841 275.245,344.826 275.200,343.821 275.200 C 342.999 275.200,342.800 275.006,342.800 274.200 C 342.800 273.267,342.667 273.200,340.800 273.200 C 338.933 273.200,338.800 273.133,338.800 272.200 C 338.800 271.400,338.600 271.200,337.800 271.200 C 337.250 271.200,336.800 271.033,336.800 270.829 C 336.800 270.022,335.473 269.200,334.171 269.200 C 332.975 269.200,332.800 269.072,332.800 268.200 C 332.800 267.267,332.667 267.200,330.800 267.200 C 328.933 267.200,328.800 267.133,328.800 266.200 C 328.800 265.267,328.667 265.200,326.800 265.200 C 324.933 265.200,324.800 265.133,324.800 264.200 C 324.800 263.400,324.600 263.200,323.800 263.200 C 323.000 263.200,322.800 263.000,322.800 262.200 C 322.800 261.267,322.667 261.200,320.800 261.200 C 318.933 261.200,318.800 261.133,318.800 260.200 C 318.800 259.267,318.667 259.200,316.800 259.200 C 314.933 259.200,314.800 259.133,314.800 258.200 C 314.800 257.267,314.667 257.200,312.800 257.200 C 310.933 257.200,310.800 257.133,310.800 256.200 C 310.800 255.400,310.600 255.200,309.800 255.200 C 309.000 255.200,308.800 255.000,308.800 254.200 C 308.800 253.267,308.667 253.200,306.800 253.200 C 304.933 253.200,304.800 253.133,304.800 252.200 C 304.800 251.267,304.667 251.200,302.800 251.200 C 300.933 251.200,300.800 251.133,300.800 250.200 C 300.800 249.408,300.598 249.200,299.828 249.200 C 299.124 249.200,298.820 248.951,298.728 248.300 C 298.619 247.532,298.321 247.382,296.700 247.278 C 294.985 247.168,294.800 247.061,294.800 246.178 C 294.800 245.271,294.655 245.200,292.800 245.200 C 290.933 245.200,290.800 245.133,290.800 244.200 C 290.800 243.267,290.667 243.200,288.800 243.200 C 286.933 243.200,286.800 243.133,286.800 242.200 C 286.800 241.400,286.600 241.200,285.800 241.200 C 285.000 241.200,284.800 241.000,284.800 240.200 C 284.800 239.267,284.667 239.200,282.800 239.200 C 280.933 239.200,280.800 239.133,280.800 238.200 C 280.800 237.267,280.667 237.200,278.800 237.200 C 276.933 237.200,276.800 237.133,276.800 236.200 C 276.800 235.400,276.600 235.200,275.800 235.200 C 275.250 235.200,274.800 235.033,274.800 234.829 C 274.800 234.022,273.473 233.200,272.171 233.200 C 270.975 233.200,270.800 233.072,270.800 232.200 C 270.800 231.267,270.667 231.200,268.800 231.200 C 266.933 231.200,266.800 231.133,266.800 230.200 C 266.800 229.267,266.667 229.200,264.800 229.200 C 262.933 229.200,262.800 229.133,262.800 228.200 C 262.800 227.405,262.599 227.200,261.818 227.200 C 261.278 227.200,260.386 226.750,259.836 226.200 C 259.286 225.650,258.378 225.200,257.818 225.200 C 256.885 225.200,256.565 224.690,256.753 223.500 C 256.779 223.335,256.665 223.221,256.500 223.247 C 254.547 223.556,252.845 223.128,252.728 222.300 C 252.619 221.532,252.321 221.382,250.700 221.278 C 248.985 221.168,248.800 221.061,248.800 220.178 C 248.800 219.401,248.594 219.200,247.800 219.200 C 247.000 219.200,246.800 219.000,246.800 218.200 C 246.800 217.211,240.366 216.567,239.467 217.467 M315.600 249.089 C 315.600 249.592,316.743 250.590,317.012 250.321 C 317.118 250.215,316.844 249.802,316.402 249.402 C 315.961 249.003,315.600 248.862,315.600 249.089 M0.000 342.000 L 0.000 344.800 1.400 344.800 L 2.800 344.800 2.800 342.000 L 2.800 339.200 1.400 339.200 L 0.000 339.200 0.000 342.000 " stroke="none" fill="#04549c" fill-rule="evenodd"></path></g></svg>